<?xml version="1.0" standalone="no"?>
<!DOCTYPE svg PUBLIC "-//W3C//DTD SVG 20010904//EN"
 "http://www.w3.org/TR/2001/REC-SVG-20010904/DTD/svg10.dtd">
<svg version="1.0" xmlns="http://www.w3.org/2000/svg"
 width="496.000000pt" height="496.000000pt" viewBox="0 0 496.000000 496.000000"
 preserveAspectRatio="xMidYMid meet">
<metadata>
Created by potrace 1.11, written by Peter Selinger 2001-2013
</metadata>
<g transform="translate(0.000000,496.000000) scale(0.100000,-0.100000)"
fill="#000000" stroke="none">
<path d="M3276 3814 c-73 -14 -164 -42 -181 -54 -5 -5 -13 -9 -18 -9 -16 -1
-117 -55 -117 -62 0 -4 -9 -10 -20 -14 -10 -3 -36 -23 -56 -43 -21 -20 -34
-30 -29 -22 5 8 -26 -19 -68 -62 -42 -42 -77 -81 -77 -88 0 -6 -4 -9 -9 -5 -5
3 -12 -4 -16 -15 -3 -11 -12 -20 -20 -20 -8 0 -17 -9 -20 -20 -3 -11 -13 -20
-21 -20 -8 0 -14 -4 -14 -10 0 -15 -130 -140 -145 -140 -13 0 -37 23 -200 189
-120 123 -200 191 -224 191 -6 0 -11 4 -11 8 0 10 -94 53 -176 80 -52 18 -86
25 -174 39 -14 2 -59 3 -100 3 -65 -1 -95 -5 -185 -26 -11 -3 -24 -6 -30 -7
-5 -2 -16 -6 -22 -10 -7 -5 -13 -5 -13 -1 0 3 -7 1 -15 -6 -8 -7 -15 -10 -15
-7 0 9 -141 -63 -189 -97 -64 -45 -157 -134 -189 -181 -15 -22 -29 -42 -32
-45 -19 -19 -90 -162 -90 -182 0 -9 -4 -19 -9 -22 -4 -3 -12 -25 -16 -48 -4
-24 -9 -47 -11 -53 -39 -139 -14 -354 60 -519 51 -112 102 -178 278 -360 59
-61 108 -113 108 -116 0 -3 82 -89 183 -192 100 -102 214 -220 254 -261 40
-41 75 -72 78 -69 3 3 5 0 5 -6 0 -6 15 -27 33 -46 19 -19 51 -61 72 -93 46
-70 149 -162 228 -204 117 -61 261 -92 367 -77 90 12 170 30 176 39 3 5 14 9
24 9 10 0 20 3 22 8 2 4 23 18 48 32 60 32 54 27 207 175 74 71 141 134 149
138 8 4 14 15 14 24 0 9 3 14 6 10 7 -7 44 29 44 43 0 6 4 10 8 10 5 0 52 44
105 98 432 437 537 546 537 553 0 5 5 9 11 9 12 0 259 249 259 261 0 4 9 11
20 14 11 4 18 10 15 15 -3 5 4 12 16 15 11 4 19 9 16 11 -2 3 17 26 44 52 155
153 225 398 173 612 -24 96 -82 212 -139 278 -64 74 -194 172 -229 172 -9 0
-16 4 -16 9 0 7 -24 16 -80 27 -49 10 -118 31 -135 41 -42 23 -200 55 -288 57
-51 2 -123 -3 -161 -10z"/>
</g>
</svg>
