<svg xmlns="http://www.w3.org/2000/svg" height="512pt" version="1.1" viewBox="0 0 512 512" width="512pt">
<g id="surface1">
<path d="M 157.550781 100.230469 C 152.445312 100.230469 147.484375 97.582031 144.75 92.84375 L 122.59375 54.472656 C 118.515625 47.410156 120.9375 38.375 128 34.296875 C 135.0625 30.21875 144.097656 32.640625 148.175781 39.703125 L 170.328125 78.074219 C 174.40625 85.140625 171.988281 94.171875 164.921875 98.25 C 162.597656 99.59375 160.058594 100.230469 157.550781 100.230469 Z M 157.550781 100.230469 " style=" stroke:none;fill-rule:nonzero;fill:rgb(100%,71.372549%,33.333333%);fill-opacity:1;" />
<path d="M 376.628906 479.683594 C 371.523438 479.683594 366.558594 477.035156 363.824219 472.296875 L 341.671875 433.925781 C 337.59375 426.859375 340.011719 417.828125 347.078125 413.75 C 354.140625 409.667969 363.171875 412.09375 367.25 419.15625 L 389.40625 457.527344 C 393.484375 464.589844 391.0625 473.625 384 477.703125 C 381.675781 479.046875 379.136719 479.683594 376.628906 479.683594 Z M 376.628906 479.683594 " style=" stroke:none;fill-rule:nonzero;fill:rgb(100%,71.372549%,33.333333%);fill-opacity:1;" />
<path d="M 85.445312 172.3125 C 82.941406 172.3125 80.402344 171.671875 78.074219 170.328125 L 39.703125 148.175781 C 32.640625 144.097656 30.21875 135.066406 34.296875 128 C 38.375 120.9375 47.410156 118.511719 54.472656 122.59375 L 92.84375 144.75 C 99.90625 148.828125 102.328125 157.859375 98.25 164.921875 C 95.515625 169.660156 90.550781 172.3125 85.445312 172.3125 Z M 85.445312 172.3125 " style=" stroke:none;fill-rule:nonzero;fill:rgb(100%,71.372549%,33.333333%);fill-opacity:1;" />
<path d="M 464.898438 391.386719 C 462.390625 391.386719 459.851562 390.75 457.527344 389.40625 L 419.15625 367.25 C 412.09375 363.171875 409.671875 354.140625 413.75 347.078125 C 417.828125 340.011719 426.859375 337.589844 433.925781 341.671875 L 472.296875 363.824219 C 479.359375 367.902344 481.78125 376.933594 477.703125 384 C 474.96875 388.738281 470.003906 391.386719 464.898438 391.386719 Z M 464.898438 391.386719 " style=" stroke:none;fill-rule:nonzero;fill:rgb(100%,71.372549%,33.333333%);fill-opacity:1;" />
<path d="M 47.101562 391.386719 C 41.996094 391.386719 37.035156 388.738281 34.296875 384 C 30.21875 376.933594 32.640625 367.902344 39.703125 363.824219 L 78.074219 341.671875 C 85.140625 337.589844 94.171875 340.011719 98.25 347.078125 C 102.328125 354.140625 99.90625 363.175781 92.84375 367.25 L 54.472656 389.40625 C 52.148438 390.75 49.605469 391.386719 47.101562 391.386719 Z M 47.101562 391.386719 " style=" stroke:none;fill-rule:nonzero;fill:rgb(100%,71.372549%,33.333333%);fill-opacity:1;" />
<path d="M 426.554688 172.3125 C 421.449219 172.3125 416.484375 169.660156 413.75 164.921875 C 409.671875 157.859375 412.09375 148.824219 419.15625 144.75 L 457.527344 122.59375 C 464.589844 118.511719 473.625 120.933594 477.703125 128 C 481.78125 135.066406 479.359375 144.097656 472.296875 148.175781 L 433.925781 170.328125 C 431.597656 171.671875 429.058594 172.3125 426.554688 172.3125 Z M 426.554688 172.3125 " style=" stroke:none;fill-rule:nonzero;fill:rgb(100%,71.372549%,33.333333%);fill-opacity:1;" />
<path d="M 135.371094 479.683594 C 132.863281 479.683594 130.324219 479.046875 128 477.703125 C 120.9375 473.625 118.515625 464.589844 122.59375 457.527344 L 144.75 419.15625 C 148.828125 412.089844 157.859375 409.667969 164.921875 413.75 C 171.988281 417.828125 174.40625 426.859375 170.328125 433.925781 L 148.175781 472.296875 C 145.441406 477.035156 140.476562 479.683594 135.371094 479.683594 Z M 135.371094 479.683594 " style=" stroke:none;fill-rule:nonzero;fill:rgb(100%,71.372549%,33.333333%);fill-opacity:1;" />
<path d="M 467.691406 211.691406 L 463.046875 211.691406 C 454.582031 171.753906 434.90625 135.535156 405.683594 106.316406 C 376.464844 77.09375 340.246094 57.417969 300.308594 48.953125 L 300.308594 44.308594 C 300.308594 19.875 280.429688 0 256 0 C 231.570312 0 211.691406 19.875 211.691406 44.308594 L 211.691406 48.953125 C 171.753906 57.421875 135.535156 77.09375 106.316406 106.316406 C 77.09375 135.535156 57.417969 171.753906 48.953125 211.691406 L 44.308594 211.691406 C 19.875 211.691406 0 231.570312 0 256 C 0 280.429688 19.875 300.308594 44.308594 300.308594 L 48.953125 300.308594 C 57.421875 340.246094 77.09375 376.464844 106.316406 405.683594 C 135.535156 434.90625 171.753906 454.578125 211.691406 463.046875 L 211.691406 467.691406 C 211.691406 492.125 231.570312 512 256 512 C 280.429688 512 300.308594 492.125 300.308594 467.691406 L 300.308594 463.046875 C 340.246094 454.578125 376.464844 434.90625 405.683594 405.683594 C 434.90625 376.464844 454.578125 340.246094 463.046875 300.308594 L 467.691406 300.308594 C 492.125 300.308594 512 280.429688 512 256 C 512 231.570312 492.125 211.691406 467.691406 211.691406 Z M 467.691406 211.691406 " style=" stroke:none;fill-rule:nonzero;fill:rgb(93.72549%,32.54902%,31.372549%);fill-opacity:1;" />
<path d="M 354.449219 100.230469 C 351.941406 100.230469 349.402344 99.59375 347.078125 98.25 C 340.011719 94.171875 337.59375 85.140625 341.671875 78.074219 L 363.824219 39.703125 C 367.902344 32.636719 376.933594 30.21875 384 34.296875 C 391.0625 38.375 393.484375 47.410156 389.40625 54.472656 L 367.25 92.84375 C 364.515625 97.582031 359.550781 100.230469 354.449219 100.230469 Z M 354.449219 100.230469 " style=" stroke:none;fill-rule:nonzero;fill:rgb(100%,71.372549%,33.333333%);fill-opacity:1;" />
<path d="M 272.5625 293.59375 C 255.285156 276.320312 227.175781 276.316406 209.898438 293.59375 C 192.625 310.867188 192.625 338.976562 209.898438 356.253906 L 237.75 384.101562 C 246.121094 392.472656 257.246094 397.082031 269.082031 397.082031 C 280.914062 397.082031 292.042969 392.472656 300.410156 384.101562 C 308.78125 375.734375 313.386719 364.609375 313.386719 352.773438 C 313.386719 340.9375 308.78125 329.8125 300.410156 321.445312 Z M 272.5625 293.59375 " style=" stroke:none;fill-rule:nonzero;fill:rgb(100%,71.372549%,33.333333%);fill-opacity:1;" />
<path d="M 467.691406 211.691406 L 463.046875 211.691406 C 454.582031 171.753906 434.90625 135.535156 405.683594 106.316406 C 376.464844 77.09375 340.246094 57.417969 300.308594 48.953125 L 300.308594 44.308594 C 300.308594 19.875 280.429688 0 256 0 L 256 512 C 280.429688 512 300.308594 492.125 300.308594 467.691406 L 300.308594 463.046875 C 340.246094 454.578125 376.464844 434.90625 405.683594 405.683594 C 434.90625 376.464844 454.578125 340.246094 463.046875 300.308594 L 467.691406 300.308594 C 492.125 300.308594 512 280.429688 512 256 C 512 231.570312 492.125 211.691406 467.691406 211.691406 Z M 467.691406 211.691406 " style=" stroke:none;fill-rule:nonzero;fill:rgb(82.745098%,18.431373%,18.431373%);fill-opacity:1;" />
<path d="M 300.410156 321.441406 L 272.5625 293.59375 C 267.730469 288.761719 262.050781 285.285156 256 283.15625 L 256 395.125 C 260.183594 396.410156 264.578125 397.082031 269.078125 397.082031 C 280.914062 397.082031 292.039062 392.472656 300.410156 384.101562 C 308.777344 375.734375 313.386719 364.609375 313.386719 352.773438 C 313.386719 340.9375 308.78125 329.8125 300.410156 321.441406 Z M 300.410156 321.441406 " style=" stroke:none;fill-rule:nonzero;fill:rgb(100%,53.333333%,34.901961%);fill-opacity:1;" />
<path d="M 384.101562 183.597656 L 356.253906 155.746094 C 338.980469 138.472656 310.867188 138.472656 293.59375 155.746094 C 276.320312 173.023438 276.320312 201.132812 293.59375 218.40625 L 321.441406 246.257812 C 329.8125 254.625 340.9375 259.234375 352.773438 259.234375 C 364.609375 259.234375 375.734375 254.625 384.101562 246.257812 C 392.472656 237.890625 397.082031 226.761719 397.082031 214.925781 C 397.082031 203.089844 392.472656 191.964844 384.101562 183.597656 Z M 384.101562 183.597656 " style=" stroke:none;fill-rule:nonzero;fill:rgb(100%,53.333333%,34.901961%);fill-opacity:1;" />
<path d="M 231.488281 218.40625 C 248.761719 201.132812 248.761719 173.023438 231.488281 155.746094 C 223.117188 147.378906 211.992188 142.769531 200.15625 142.769531 C 188.320312 142.769531 177.195312 147.378906 168.828125 155.746094 L 140.976562 183.59375 C 132.609375 191.964844 128 203.089844 128 214.925781 C 128 226.761719 132.609375 237.886719 140.976562 246.253906 C 149.613281 254.890625 160.960938 259.210938 172.308594 259.210938 C 183.65625 259.210938 195 254.890625 203.636719 246.253906 Z M 231.488281 218.40625 " style=" stroke:none;fill-rule:nonzero;fill:rgb(100%,71.372549%,33.333333%);fill-opacity:1;" />
<path d="M 148.183594 320.492188 C 144.40625 320.492188 140.625 319.050781 137.742188 316.164062 L 136.757812 315.179688 C 130.988281 309.414062 130.988281 300.0625 136.757812 294.292969 C 142.523438 288.527344 151.875 288.527344 157.644531 294.292969 L 158.628906 295.277344 C 164.394531 301.046875 164.394531 310.398438 158.628906 316.164062 C 155.746094 319.050781 151.964844 320.492188 148.183594 320.492188 Z M 148.183594 320.492188 " style=" stroke:none;fill-rule:nonzero;fill:rgb(82.745098%,18.431373%,18.431373%);fill-opacity:1;" />
<path d="M 363.816406 320.492188 C 360.035156 320.492188 356.253906 319.050781 353.371094 316.164062 C 347.605469 310.398438 347.605469 301.046875 353.371094 295.277344 L 354.355469 294.292969 C 360.125 288.527344 369.476562 288.527344 375.242188 294.292969 C 381.011719 300.0625 381.011719 309.414062 375.242188 315.179688 L 374.257812 316.164062 C 371.375 319.050781 367.59375 320.492188 363.816406 320.492188 Z M 363.816406 320.492188 " style=" stroke:none;fill-rule:nonzero;fill:rgb(82.745098%,18.431373%,18.431373%);fill-opacity:1;" />
</g>
</svg>