<svg height="512pt" viewBox="0 0 512 512" width="512pt" xmlns="http://www.w3.org/2000/svg"><path d="m407.671875 38.042969h-234.878906v97.402343h285.042969v-47.257812c0-27.652344-22.503907-50.144531-50.164063-50.144531zm0 0" fill="#ccf4ff"/><path d="m274.714844 150.433594h-274.714844v-90.378906c0-33.117188 26.949219-60.054688 60.078125-60.054688h87.835937c8.730469 0 17.140626 1.839844 24.78125 5.296875 10.671876 4.808594 19.839844 12.734375 26.269532 23.089844zm0 0" fill="#3185ff"/><path d="m512 170.667969v291.125c0 27.6875-22.539062 50.207031-50.238281 50.207031h-411.523438c-27.699219 0-50.238281-22.519531-50.238281-50.207031v-341.34375h461.761719c27.699219 0 50.238281 22.527343 50.238281 50.21875zm0 0" fill="#4ab6ff"/><path d="m512 170.667969v291.125c0 27.6875-22.539062 50.207031-50.238281 50.207031h-205.761719v-391.550781h205.761719c27.699219 0 50.238281 22.527343 50.238281 50.21875zm0 0" fill="#3185ff"/><path d="m390.679688 316.21875c0 74.269531-60.417969 134.691406-134.679688 134.691406s-134.679688-60.421875-134.679688-134.691406c0-74.257812 60.417969-134.679688 134.679688-134.679688s134.679688 60.421876 134.679688 134.679688zm0 0" fill="#fff"/><path d="m390.679688 316.21875c0 74.269531-60.417969 134.691406-134.679688 134.691406v-269.371094c74.261719 0 134.679688 60.421876 134.679688 134.679688zm0 0" fill="#ccf4ff"/><path d="m299.410156 317.871094c-2.808594 2.378906-6.25 3.539062-9.660156 3.539062-4.269531 0-8.511719-1.808594-11.480469-5.332031l-7.269531-8.617187v56.417968c0 8.28125-6.71875 15-15 15s-15-6.71875-15-15v-56.417968l-7.269531 8.617187c-5.351563 6.332031-14.808594 7.140625-21.140625 1.792969-6.328125-5.339844-7.140625-14.800782-1.800782-21.132813l29.691407-35.199219c3.871093-4.578124 9.519531-7.210937 15.519531-7.210937s11.648438 2.632813 15.519531 7.210937l29.691407 35.199219c5.339843 6.332031 4.527343 15.792969-1.800782 21.132813zm0 0" fill="#4ab6ff"/><path d="m299.410156 317.871094c-2.808594 2.378906-6.25 3.539062-9.660156 3.539062-4.269531 0-8.511719-1.808594-11.480469-5.332031l-7.269531-8.617187v56.417968c0 8.28125-6.71875 15-15 15v-124.550781c6 0 11.648438 2.632813 15.519531 7.210937l29.691407 35.199219c5.339843 6.332031 4.527343 15.792969-1.800782 21.132813zm0 0" fill="#3185ff"/></svg>