<?xml version="1.0" encoding="iso-8859-1"?>
<!-- Generator: Adobe Illustrator 19.0.0, SVG Export Plug-In . SVG Version: 6.00 Build 0)  -->
<svg version="1.1" id="Layer_1" xmlns="http://www.w3.org/2000/svg" xmlns:xlink="http://www.w3.org/1999/xlink" x="0px" y="0px"
	 viewBox="0 0 459.992 459.992" style="enable-background:new 0 0 459.992 459.992;" xml:space="preserve">
<g id="XMLID_991_">
	<path id="XMLID_992_" style="fill:#D93722;" d="M445.751,150.179c-11.155-30.209-28.85-58.549-53.115-82.813
		c-89.821-89.821-235.448-89.821-325.269,0s-89.821,235.448,0,325.269c29.228,29.228,64.367,48.936,101.568,59.142L445.751,150.179z
		"/>
	<path id="XMLID_56_" style="fill:#BD0A13;" d="M445.751,150.179l-60.893-60.893l-253.851,239.71
		c-22.194,22.194-57.583,23.316-81.131,3.4l-0.186,0.135l119.246,119.246c77.121,21.158,163.108,1.451,223.701-59.142
		C458.193,327.079,475.889,231.798,445.751,150.179z"/>
	
		<rect id="XMLID_55_" x="357.182" y="77.825" transform="matrix(0.7071 0.7071 -0.7071 0.7071 173.1826 -232.4492)" style="fill:#F77A20;" width="20" height="30"/>
	<path id="XMLID_54_" style="fill:#F7B93F;" d="M49.69,332.531c25.343,25.343,66.58,25.344,91.924,0l24.749-24.749l-14.142-14.142
		l-24.749,24.749c-17.545,17.545-46.094,17.546-63.64,0s-17.545-46.094,0-63.64L49.69,240.607
		C24.346,265.951,24.347,307.188,49.69,332.531z"/>
	<path id="XMLID_993_" style="fill:#F77A20;" d="M387.138,142.219c-1.742-13.905-7.123-27.439-16.157-39.055l13.877-13.877
		l-14.142-14.142l-21.213,21.213L152.22,307.783c13.072,13.072,29.544,20.652,46.568,22.786v19.646h20v-19.646
		c13.903-1.742,27.427-7.133,39.042-16.17l13.891,13.891l14.142-14.142l-13.435-13.435l35.355-35.355l13.435,13.435l14.142-14.142
		l-13.435-13.435l35.355-35.355l13.435,13.435l14.142-14.142l-13.891-13.891c9.037-11.615,14.428-25.139,16.17-39.042h19.646v-20
		h-19.644V142.219z"/>
	<path id="XMLID_52_" style="fill:#F7B93F;" d="M364.353,95.651c-13.072-13.072-29.544-20.653-46.568-22.786V53.219h-20v19.646
		c-13.903,1.742-27.427,7.133-39.042,16.17l-13.892-13.89l-14.142,14.142l13.435,13.435l-35.355,35.355l-13.435-13.435
		l-14.142,14.142l13.435,13.435l-35.355,35.355l-13.435-13.435l-14.142,14.142l13.891,13.891
		c-9.037,11.615-14.428,25.139-16.17,39.042H109.79v20h19.646c2.133,17.025,9.714,33.497,22.786,46.568L364.353,95.651z"/>
	<path id="XMLID_51_" style="fill:#E47682;" d="M350.21,109.793l-84.853,98.995l-98.995,84.853
		c-23.431-23.431-23.431-61.421,0-84.853s75.563-75.563,98.995-98.995S326.779,86.361,350.21,109.793z"/>
	<path id="XMLID_50_" style="fill:#DA5B66;" d="M350.21,194.646c-23.431,23.431-75.564,75.564-98.995,98.995
		s-61.421,23.431-84.853,0L350.21,109.793C373.642,133.224,373.642,171.214,350.21,194.646z"/>
	<path id="XMLID_49_" style="fill:#D93722;" d="M279.5,152.219l-70.711,70.711c-7.798,7.798-7.798,20.486,0,28.284l56.569-42.426
		l42.426-56.569C299.986,144.421,287.298,144.421,279.5,152.219z"/>
	<path id="XMLID_48_" style="fill:#BD0A13;" d="M307.784,152.219l-98.995,98.995c7.798,7.798,20.486,7.798,28.284,0l70.711-70.711
		C315.582,172.706,315.582,160.017,307.784,152.219z"/>
	<circle id="XMLID_47_" style="fill:#D93722;" cx="187.576" cy="272.427" r="10"/>
	<circle id="XMLID_46_" style="fill:#D93722;" cx="336.068" cy="166.361" r="10"/>
	<circle id="XMLID_45_" style="fill:#DA5B66;" cx="180.505" cy="237.072" r="10"/>
</g>
<g>
</g>
<g>
</g>
<g>
</g>
<g>
</g>
<g>
</g>
<g>
</g>
<g>
</g>
<g>
</g>
<g>
</g>
<g>
</g>
<g>
</g>
<g>
</g>
<g>
</g>
<g>
</g>
<g>
</g>
</svg>
