<svg height="512pt" viewBox="0 0 512 512" width="512pt" xmlns="http://www.w3.org/2000/svg"><g fill="#65ddb9"><path d="m256 158.898438c-4.875 0-8.828125-3.953126-8.828125-8.828126v-35.3125c0-4.875 3.953125-8.828124 8.828125-8.828124s8.828125 3.953124 8.828125 8.828124v35.3125c0 4.875-3.953125 8.828126-8.828125 8.828126zm0 0"/><path d="m167.105469 357.074219c-3.570313 0-6.785157-2.148438-8.152344-5.449219-1.367187-3.296875-.613281-7.09375 1.910156-9.617188l15.625-15.625c3.464844-3.347656 8.972657-3.296874 12.375.105469 3.40625 3.40625 3.453125 8.914063.109375 12.375l-15.625 15.625c-1.652344 1.664063-3.898437 2.59375-6.242187 2.585938zm0 0"/><path d="m256 406.070312c-4.875 0-8.828125-3.953124-8.828125-8.828124v-35.3125c0-4.875 3.953125-8.828126 8.828125-8.828126s8.828125 3.953126 8.828125 8.828126v35.3125c0 4.875-3.953125 8.828124-8.828125 8.828124zm0 0"/><path d="m397.242188 264.828125h-35.3125c-4.875 0-8.828126-3.953125-8.828126-8.828125s3.953126-8.828125 8.828126-8.828125h35.3125c4.875 0 8.828124 3.953125 8.828124 8.828125s-3.953124 8.828125-8.828124 8.828125zm0 0"/><path d="m150.070312 264.828125h-26.484374c-4.875 0-8.828126-3.953125-8.828126-8.828125s3.953126-8.828125 8.828126-8.828125h26.484374c4.875 0 8.828126 3.953125 8.828126 8.828125s-3.953126 8.828125-8.828126 8.828125zm0 0"/><path d="m332.957031 191.214844c-3.566406 0-6.785156-2.152344-8.152343-5.449219-1.367188-3.300781-.609376-7.09375 1.914062-9.621094l19.417969-19.417969c3.464843-3.347656 8.972656-3.300781 12.375.105469 3.40625 3.40625 3.453125 8.910157.109375 12.375l-19.421875 19.421875c-1.65625 1.65625-3.898438 2.585938-6.242188 2.585938zm0 0"/></g><path d="m361.929688 256c0 58.503906-47.425782 105.929688-105.929688 105.929688s-105.929688-47.425782-105.929688-105.929688 47.425782-105.929688 105.929688-105.929688 105.929688 47.425782 105.929688 105.929688zm0 0" fill="#46b29d"/><path d="m247.171875 335.449219c-4.875 0-8.828125-3.953125-8.828125-8.828125s3.953125-8.828125 8.828125-8.828125c10.050781.007812 19.980469-2.140625 29.132813-6.292969l35.195312-35.195312c4.152344-9.152344 6.300781-19.082032 6.292969-29.132813 0-4.875 3.953125-8.828125 8.828125-8.828125s8.828125 3.953125 8.828125 8.828125c.003906 13.164063-2.945313 26.164063-8.625 38.039063-.441407.914062-1.039063 1.746093-1.765625 2.453124l-37.429688 37.429688c-.707031.726562-1.539062 1.324219-2.453125 1.765625-11.867187 5.664063-24.851562 8.597656-38.003906 8.589844zm0 0" fill="#65ddb9"/><path d="m283.984375 246.464844c12.78125-2.902344 21.515625-14.722656 20.542969-27.792969-.976563-13.074219-11.367188-23.464844-24.441406-24.441406-13.070313-.972657-24.890626 7.761719-27.792969 20.542969" fill="#14a085"/><path d="m220.691406 317.75c-1.15625-.019531-2.292968-.257812-3.355468-.707031-1.070313-.453125-2.054688-1.078125-2.914063-1.855469-.796875-.84375-1.425781-1.832031-1.855469-2.910156-.449218-1.0625-.691406-2.203125-.703125-3.355469.03125-2.335937.945313-4.574219 2.558594-6.269531.859375-.78125 1.84375-1.410156 2.914063-1.859375 3.292968-1.332031 7.0625-.601563 9.621093 1.859375 1.613281 1.695312 2.527344 3.933594 2.558594 6.269531-.011719 1.152344-.253906 2.292969-.703125 3.355469-.429688 1.078125-1.058594 2.066406-1.855469 2.910156-1.695312 1.609375-3.929687 2.523438-6.265625 2.5625zm0 0" fill="#14a085"/><path d="m194.207031 291.265625c-1.152343-.015625-2.292969-.257813-3.355469-.707031-1.066406-.449219-2.050781-1.078125-2.914062-1.851563-.796875-.84375-1.425781-1.832031-1.851562-2.914062-.453126-1.0625-.691407-2.199219-.707032-3.355469.035156-2.335938.949219-4.574219 2.558594-6.265625.859375-.78125 1.84375-1.414063 2.914062-1.863281 3.296876-1.328125 7.0625-.601563 9.621094 1.863281 1.613282 1.691406 2.527344 3.929687 2.5625 6.265625-.015625 1.15625-.253906 2.292969-.707031 3.355469-.425781 1.082031-1.054687 2.070312-1.855469 2.914062-1.691406 1.609375-3.929687 2.519531-6.265625 2.558594zm0 0" fill="#14a085"/><path d="m256 0c-141.386719 0-256 114.613281-256 256s114.613281 256 256 256 256-114.613281 256-256-114.613281-256-256-256zm0 467.863281c-80.886719.042969-154.730469-46-190.296875-118.648437-35.5625-72.648438-26.632813-159.210938 23.015625-223.070313l297.046875 297.136719c-37.046875 28.96875-82.738281 44.667969-129.765625 44.582031zm167.28125-82.097656-297.136719-297.046875c84.273438-65.558594 204.171875-58.109375 279.679688 17.375 75.507812 75.484375 82.992187 195.382812 17.457031 279.671875zm0 0" fill="#e64c3c"/><path d="m273.65625 97.101562c0 9.753907-7.90625 17.65625-17.65625 17.65625s-17.65625-7.902343-17.65625-17.65625c0-9.75 7.90625-17.652343 17.65625-17.652343s17.65625 7.902343 17.65625 17.652343zm0 0" fill="#14a085"/><path d="m176.550781 366.34375c0 12.1875-9.878906 22.070312-22.066406 22.070312-12.191406 0-22.070313-9.882812-22.070313-22.070312s9.878907-22.066406 22.070313-22.066406c12.1875 0 22.066406 9.878906 22.066406 22.066406zm0 0" fill="#14a085"/><path d="m273.65625 414.898438c0 9.75-7.90625 17.652343-17.65625 17.652343s-17.65625-7.902343-17.65625-17.652343c0-9.753907 7.90625-17.65625 17.65625-17.65625s17.65625 7.902343 17.65625 17.65625zm0 0" fill="#14a085"/><path d="m432.550781 256c0 9.75-7.902343 17.65625-17.652343 17.65625-9.753907 0-17.65625-7.90625-17.65625-17.65625s7.902343-17.65625 17.65625-17.65625c9.75 0 17.652343 7.90625 17.652343 17.65625zm0 0" fill="#14a085"/><path d="m123.585938 256c0 9.75-7.902344 17.65625-17.65625 17.65625-9.75 0-17.652344-7.90625-17.652344-17.65625s7.902344-17.65625 17.652344-17.65625c9.753906 0 17.65625 7.90625 17.65625 17.65625zm0 0" fill="#14a085"/><path d="m388.414062 145.65625c0 12.1875-9.882812 22.066406-22.070312 22.066406s-22.066406-9.878906-22.066406-22.066406 9.878906-22.070312 22.066406-22.070312 22.070312 9.882812 22.070312 22.070312zm0 0" fill="#14a085"/></svg>