<?xml version="1.0" encoding="iso-8859-1"?>
<!-- Generator: Adobe Illustrator 21.0.0, SVG Export Plug-In . SVG Version: 6.00 Build 0)  -->
<svg version="1.1" id="Capa_1" xmlns="http://www.w3.org/2000/svg" xmlns:xlink="http://www.w3.org/1999/xlink" x="0px" y="0px"
	 viewBox="0 0 512 512" style="enable-background:new 0 0 512 512;" xml:space="preserve">
<circle style="fill:#FFCDA8;" cx="255.998" cy="256" r="255.998"/>
<path style="fill:#FF5B47;" d="M377.567,325.243c-7.065,30.629-54.173,45.911-105.224,34.137
	c-17.78-4.101-33.694-10.943-46.579-19.409l-0.006-0.009c-24.123-15.852-37.667-37.401-33.064-57.36
	c7.065-30.629,54.183-45.918,105.233-34.143C348.978,260.233,384.632,294.614,377.567,325.243z"/>
<g>
	<path style="fill:#E53E2D;" d="M285.473,302.454c-27.895-6.434-48.67-23.318-51.642-40.344c-1.842,2.547-3.162,5.355-3.864,8.4
		c-4.563,19.782,18.466,41.984,51.437,49.588c32.97,7.605,63.397-2.267,67.96-22.049c0.702-3.045,0.746-6.146,0.205-9.244
		C339.439,302.809,313.369,308.888,285.473,302.454z"/>
	<path style="fill:#E53E2D;" d="M251.108,286.866l-8.39,14.039c0,0-33.87,11.984-16.959,39.056
		c-24.123-15.852-37.667-37.401-33.064-57.36c7.065-30.629,54.183-45.918,105.233-34.143
		C297.928,248.459,240.275,260.28,251.108,286.866z"/>
</g>
<path style="fill:#FF5B47;" d="M512,256.001c0,3.594-0.073,7.158-0.23,10.71c-0.324,8.067-1.024,16.029-2.1,23.876
	c-2.487,18.463-6.949,36.31-13.155,53.31c-10.083-0.439-19.738-1.682-28.776-3.626h-0.01c-37.303-8.035-64.271-28.139-68.116-54.94
	c-5.653-39.403,40.74-78.994,104.938-90.874c0.324,1.296,0.637,2.591,0.94,3.897C509.743,216.88,512,236.179,512,256.001z"/>
<g>
	<path style="fill:#E53E2D;" d="M511.77,266.711c-0.324,8.067-1.024,16.029-2.1,23.876c-14.775,0.209-28.411-2.152-39.675-6.551
		c-16.771-6.541-28.233-17.586-30.208-31.389c-0.596-4.086-0.303-8.171,0.752-12.194c6.06,10.073,17.92,17.847,33.102,22.288
		C484.864,266.022,497.904,267.484,511.77,266.711z"/>
	<path style="fill:#E53E2D;" d="M473.642,262.729v0.01l-3.647,21.295c0,0-36.028,30.929-2.267,56.236
		c-37.303-8.035-64.271-28.139-68.116-54.94c-5.653-39.403,40.74-78.994,104.938-90.874c0.324,1.296,0.637,2.591,0.94,3.897
		C489.086,210.517,453.225,241.069,473.642,262.729z"/>
</g>
<path style="fill:#FF5B47;" d="M252.352,193.018c-9.337,40.482-71.601,60.682-139.075,45.119
	c-23.5-5.42-44.532-14.464-61.565-25.652l-0.008-0.013C19.821,191.522,1.919,163.04,8.004,136.66
	c9.337-40.482,71.614-60.689,139.088-45.127S261.689,152.536,252.352,193.018z"/>
<g>
	<path style="fill:#E53E2D;" d="M130.629,162.899c-36.87-8.504-64.328-30.819-68.255-53.324c-2.436,3.367-4.18,7.078-5.107,11.102
		c-6.031,26.146,24.407,55.49,67.984,65.541c43.577,10.051,83.792-2.997,89.823-29.143c0.928-4.024,0.985-8.124,0.272-12.218
		C201.957,163.368,167.499,171.402,130.629,162.899z"/>
	<path style="fill:#E53E2D;" d="M85.209,142.296l-11.089,18.556c0,0-44.766,15.84-22.415,51.621
		C19.821,191.522,1.919,163.04,8.004,136.66c9.337-40.482,71.614-60.689,139.088-45.127
		C147.091,91.533,70.891,107.156,85.209,142.296z"/>
</g>
<path style="fill:#FF5B47;" d="M474.05,390.185c-15.067,24.44-34.137,46.153-56.288,64.229c-7.398,6.05-15.13,11.682-23.186,16.865
	c-18.045,11.64-37.647,21.075-58.43,27.909c-18.024-15.172-28.014-33.687-26.07-52.642c4.221-41.336,63.509-69.13,132.388-62.087
	C453.465,385.589,464.05,387.532,474.05,390.185z"/>
<g>
	<path style="fill:#E53E2D;" d="M417.761,454.415c-7.398,6.05-15.13,11.682-23.186,16.865
		c-24.158-10.762-39.486-28.421-37.606-46.728c0.418-4.106,1.682-8.004,3.678-11.651
		C366.279,431.282,388.442,447.467,417.761,454.415z"/>
	<path style="fill:#E53E2D;" d="M387.376,442.525l-8.694,19.801c0,0-22.559,11.316-24.45,30.135
		c-5.925,2.466-11.954,4.712-18.087,6.729c-18.024-15.172-28.014-33.687-26.07-52.642c4.221-41.336,63.509-69.13,132.388-62.087
		C442.462,384.459,368.798,409.442,387.376,442.525z"/>
</g>
<g>
	<path style="fill:#384E99;" d="M187.278,293.518c-4.016-0.982-7.637-3.54-9.863-7.406L161.56,258.57
		c-4.319-7.501-1.739-17.084,5.764-21.403c7.501-4.319,17.084-1.74,21.403,5.764l15.855,27.541
		c4.319,7.501,1.739,17.084-5.764,21.403C195.182,293.968,191.056,294.442,187.278,293.518z"/>
	<path style="fill:#384E99;" d="M154.996,469.569c-1.459-0.356-2.891-0.931-4.252-1.733c-7.453-4.401-9.929-14.012-5.527-21.465
		l23.865-40.419c4.401-7.453,14.009-9.931,21.465-5.527c7.453,4.401,9.929,14.012,5.527,21.465l-23.865,40.419
		C168.612,468.4,161.533,471.166,154.996,469.569z"/>
	<path style="fill:#384E99;" d="M319.098,396.741c-0.194-0.048-0.388-0.098-0.582-0.154l-53.299-15.182
		c-8.326-2.372-13.152-11.042-10.78-19.367c2.372-8.326,11.074-13.143,19.367-10.78l53.299,15.182
		c8.326,2.372,13.152,11.042,10.78,19.367C335.567,393.937,327.24,398.731,319.098,396.741z"/>
</g>
<circle style="fill:#00A6F9;" cx="212.197" cy="349.967" r="88.816"/>
<path style="fill:#91C6E0;" d="M191.106,436.241c-47.644-11.648-76.832-59.714-65.181-107.368
	c11.648-47.644,59.724-76.83,107.368-65.181c-21.304-5.209-48.015,29.201-59.663,76.844
	C161.978,388.189,169.801,431.032,191.106,436.241z"/>
<g>
	<path style="fill:#384E99;" d="M247.242,325.389c-3.463-0.846-6.656-2.872-8.923-5.976c-5.107-6.988-3.583-16.795,3.406-21.902
		l43.54-31.82c6.988-5.106,16.795-3.583,21.902,3.406c5.107,6.988,3.583,16.795-3.406,21.902l-43.54,31.82
		C256.336,325.66,251.579,326.45,247.242,325.389z"/>
	<path style="fill:#384E99;" d="M251.274,477.274c-4.627-1.132-8.682-4.348-10.7-9.063l-22.761-53.199
		c-3.404-7.959,0.286-17.17,8.245-20.575c7.959-3.405,17.17,0.286,20.575,8.245l22.761,53.199c3.404,7.959-0.286,17.17-8.245,20.575
		C257.907,477.842,254.456,478.052,251.274,477.274z"/>
	<path style="fill:#384E99;" d="M90.376,373.094c-6.125-1.497-10.989-6.632-11.829-13.261c-1.088-8.588,4.992-16.431,13.58-17.519
		l52.171-6.607c8.59-1.086,16.431,4.992,17.519,13.58c1.088,8.588-4.992,16.431-13.58,17.519l-52.171,6.607
		C94.106,373.662,92.186,373.537,90.376,373.094z"/>
	<path style="fill:#384E99;" d="M329.335,74.461c-4.092,0.585-8.406-0.439-11.912-3.196l-24.979-19.646
		c-6.803-5.351-7.981-15.205-2.629-22.009c5.351-6.803,15.204-7.982,22.009-2.629l24.978,19.647
		c6.803,5.351,7.981,15.205,2.629,22.009C336.838,71.934,333.185,73.91,329.335,74.461z"/>
	<path style="fill:#384E99;" d="M490.129,121.114c-0.199,0.028-0.396,0.053-0.597,0.074l-55.117,5.777
		c-8.61,0.903-16.32-5.345-17.222-13.953c-0.903-8.61,5.377-16.323,13.953-17.222l55.117-5.777
		c8.61-0.903,16.32,5.345,17.222,13.953C504.367,112.374,498.427,119.926,490.129,121.114z"/>
</g>
<circle style="fill:#00A6F9;" cx="373.497" cy="117.552" r="88.816"/>
<path style="fill:#91C6E0;" d="M386.082,205.473c-48.552,6.949-93.552-26.774-100.503-75.337
	c-6.949-48.552,26.785-93.554,75.337-100.503c-21.711,3.108-33.672,44.993-26.722,93.545
	C341.145,171.741,364.371,208.581,386.082,205.473z"/>
<g>
	<path style="fill:#384E99;" d="M396.857,81.686c-3.529,0.505-7.246-0.184-10.508-2.219c-7.345-4.581-9.584-14.249-5.003-21.594
		l28.542-45.756c4.582-7.343,14.248-9.585,21.594-5.003c7.344,4.581,9.584,14.249,5.003,21.594l-28.542,45.756
		C405.396,78.548,401.276,81.054,396.857,81.686z"/>
	<path style="fill:#384E99;" d="M457.21,221.124c-4.715,0.675-9.677-0.799-13.307-4.423l-40.948-40.882
		c-6.126-6.116-6.134-16.04-0.018-22.165c6.116-6.126,16.039-6.135,22.165-0.018l40.948,40.882
		c6.126,6.116,6.134,16.04,0.018,22.165C463.577,219.179,460.451,220.66,457.21,221.124z"/>
	<path style="fill:#384E99;" d="M269.074,184.421c-6.242,0.893-12.669-2.058-15.919-7.896c-4.21-7.564-1.491-17.108,6.072-21.318
		l45.95-25.576c7.566-4.209,17.108-1.491,21.318,6.072c4.21,7.564,1.491,17.108-6.072,21.318l-45.95,25.576
		C272.748,183.558,270.919,184.157,269.074,184.421z"/>
</g>
<path style="fill:#FF5B47;" d="M123.708,475.198c-15.809-9.55-30.5-20.772-43.833-33.426c-5.726-5.423-11.201-11.118-16.405-17.053
	c-15.757-17.951-29.027-38.139-39.309-60.008c58.535-24.68,117.164-17.794,134.425,17.209
	C171.951,409.024,156.841,445.523,123.708,475.198z"/>
<path style="fill:#E53E2D;" d="M79.875,441.772c-5.726-5.423-11.201-11.118-16.405-17.053c23.217-16.52,37.073-38.306,35.997-56.696
	c3.145,2.717,5.684,5.925,7.513,9.634C116.206,396.361,104.419,422.003,79.875,441.772z"/>
<g>
</g>
<g>
</g>
<g>
</g>
<g>
</g>
<g>
</g>
<g>
</g>
<g>
</g>
<g>
</g>
<g>
</g>
<g>
</g>
<g>
</g>
<g>
</g>
<g>
</g>
<g>
</g>
<g>
</g>
</svg>
