<?xml version="1.0" encoding="iso-8859-1"?>
<!-- Generator: Adobe Illustrator 19.0.0, SVG Export Plug-In . SVG Version: 6.00 Build 0)  -->
<svg version="1.1" id="Capa_1" xmlns="http://www.w3.org/2000/svg" xmlns:xlink="http://www.w3.org/1999/xlink" x="0px" y="0px"
	 viewBox="0 0 512.001 512.001" style="enable-background:new 0 0 512.001 512.001;" xml:space="preserve">
<path style="fill:#32D736;" d="M512,256c0-20.7-14.099-38.101-34.501-43.5c-1.8-9.901-5.499-19.501-8.5-28.801
	c14.702-14.099,18.301-36.899,7.8-55.199C466.6,110.499,445.6,102.4,425.5,108.1c-6.6-7.5-13.8-14.701-21.3-21.3
	c5.7-19.501-2.401-41.1-20.7-51.599C365.502,24.7,343.3,28.3,328.901,43.3c-9.6-3.3-19.2-7-29.099-8.8
	C295.001,14.7,277.302,0,256.001,0c-20.7,0-38.101,14.099-43.5,34.499c-9.901,1.8-19.499,5.501-28.799,8.5
	c-14.101-14.7-36.901-18.3-55.201-7.799c-17.999,10.199-26.1,31.199-20.4,51.299c-7.5,6.601-14.699,13.801-21.3,21.301
	c-19.499-5.7-41.1,2.401-51.599,20.7c-10.501,17.999-6.901,39.899,8.099,54.6c-3.3,9.6-6.999,19.199-8.798,29.099
	C14.701,217,0.001,234.699,0.001,256c0,20.7,14.099,38.099,34.501,43.5c1.8,9.899,5.499,19.499,8.5,28.799
	C28.3,342.4,24.7,365.2,35.201,383.5C45.4,401.499,66.4,409.6,86.5,403.9c6.601,7.5,13.801,14.7,21.301,21.301
	c-5.7,19.499,2.401,41.1,20.7,51.599c17.999,10.499,39.901,6.899,54.6-8.101c9.6,3.301,19.2,7,29.099,8.8
	C217.001,497.3,234.7,512,256.001,512c20.7,0,38.101-14.101,43.5-34.501c9.901-1.8,19.499-5.499,28.799-8.5
	c14.101,14.7,36.901,18.3,55.201,7.8c17.999-10.201,26.1-31.199,20.4-51.301c7.5-6.599,14.7-13.799,21.301-21.299
	c19.499,5.7,41.1-2.401,51.599-20.7c10.501-18.001,6.901-39.901-8.099-54.6c3.3-9.6,6.999-19.2,8.798-29.101
	C497.301,295,512,277.299,512,256z"/>
<path style="fill:#10BB67;" d="M477.5,299.799c-1.8,9.901-5.499,19.501-8.798,29.101c15,14.7,18.6,36.599,8.099,54.6
	c-10.499,18.3-32.1,26.4-51.599,20.7c-6.601,7.5-13.801,14.7-21.301,21.299c5.7,20.101-2.401,41.1-20.4,51.301
	c-18.3,10.499-41.1,6.899-55.201-7.8c-9.3,3.001-18.898,6.7-28.799,8.5c-5.4,20.4-22.8,34.501-43.5,34.501V0
	c21.301,0,39,14.7,43.801,34.499c9.899,1.8,19.499,5.501,29.099,8.8c14.399-15,36.601-18.6,54.6-8.099
	c18.3,10.5,26.4,32.099,20.7,51.6c7.5,6.599,14.7,13.801,21.301,21.301c20.099-5.7,41.1,2.399,51.299,20.4
	c10.501,18.3,6.901,41.1-7.8,55.199c3.001,9.3,6.7,18.9,8.5,28.801C497.902,217.899,512,235.3,512,256
	C512,277.299,497.301,295,477.5,299.799z"/>
<circle style="fill:#CAE8F9;" cx="226.001" cy="256" r="15"/>
<g>
	<circle style="fill:#B7E0F6;" cx="346.001" cy="346" r="15"/>
	<circle style="fill:#B7E0F6;" cx="316.001" cy="106" r="15"/>
</g>
<circle style="fill:#CAE8F9;" cx="106.001" cy="286" r="15"/>
<path style="fill:#B7E0F6;" d="M346.001,268.422L303.579,226c-11.756-11.755-11.707-30.729,0-42.437
	c11.152-11.121,31.331-11.076,42.422,0.015L388.423,226c11.906,11.906,11.527,30.91,0.015,42.422
	C376.73,280.129,357.756,280.177,346.001,268.422z"/>
<g>
	<path style="fill:#CAE8F9;" d="M153.579,208.437c-11.707-11.707-11.756-30.681,0-42.437l42.422-42.422
		c11.114-11.114,31.323-11.114,42.437,0c11.512,11.512,11.891,30.516-0.015,42.422l-42.422,42.422
		C184.095,220.327,165.091,219.948,153.579,208.437z"/>
	<path style="fill:#CAE8F9;" d="M280.301,371.499c-4.501,9.901-14.099,15.901-24.3,16.8c-5.099,0.901-10.499,0-15.601-2.401
		l-54.3-25.499c-15-6.899-21.599-24.6-14.399-39.901c6.899-14.7,24.6-21.299,39.901-14.399l44.399,21l9.901,4.499
		C280.902,338.5,287.501,356.199,280.301,371.499z"/>
</g>
<path style="fill:#B7E0F6;" d="M280.301,371.499c-4.501,9.901-14.099,15.901-24.3,16.8V327.1l9.901,4.499
	C280.902,338.5,287.501,356.199,280.301,371.499z"/>
<g>
</g>
<g>
</g>
<g>
</g>
<g>
</g>
<g>
</g>
<g>
</g>
<g>
</g>
<g>
</g>
<g>
</g>
<g>
</g>
<g>
</g>
<g>
</g>
<g>
</g>
<g>
</g>
<g>
</g>
</svg>
