<svg height="512pt" viewBox="0 0 512 512" width="512pt" xmlns="http://www.w3.org/2000/svg"><path d="m512 256c0 141.386719-114.613281 256-256 256s-256-114.613281-256-256 114.613281-256 256-256 256 114.613281 256 256zm0 0" fill="#ff3c62"/><path d="m512 256c0-21.949219-2.765625-43.253906-7.964844-63.582031l-92.179687-92.273438c-53.503907-53.5-140.246094-53.5-193.746094 0-43.550781 43.550781-51.648437 109.121094-24.300781 160.863281l-31.03125 31.03125 7.246094 7.246094-69.878907 69.875c-11.789062 11.789063-11.789062 30.90625 0 42.695313l92.542969 92.246093c20.25 5.152344 41.460938 7.898438 63.3125 7.898438 141.386719 0 256-114.613281 256-256zm0 0" fill="#e7001f"/><path d="m100.144531 411.855469c-11.789062-11.789063-11.789062-30.90625 0-42.695313l77.613281-77.609375 42.691407 42.691407-77.609375 77.613281c-11.792969 11.789062-30.90625 11.789062-42.695313 0zm0 0" fill="#fff"/><path d="m220.453125 334.242188-77.609375 77.609374c-11.796875 11.796876-30.910156 11.789063-42.695312 0l98.957031-98.957031zm0 0" fill="#fff5cb"/><path d="m197.191406 257.617188 57.1875 57.1875-34.414062 34.414062-57.1875-57.183594zm0 0" fill="#00f8fe"/><path d="m191.367188 320.628906 34.414062-34.414062 28.597656 28.59375-34.417968 34.414062zm0 0" fill="#00d9e0"/><path d="m411.851562 100.144531c-53.503906-53.5-140.246093-53.5-193.746093 0-53.5 53.503907-53.5 140.246094 0 193.746094 53.5 53.503906 140.242187 53.503906 193.746093 0 53.5-53.5 53.5-140.242187 0-193.746094zm0 0" fill="#fff"/><path d="m411.851562 293.894531c-43.542968 43.542969-109.121093 51.644531-160.859374 24.300781-11.828126-6.242187-22.929688-14.34375-32.886719-24.300781l193.746093-193.746093c53.5 53.496093 53.507813 140.238281 0 193.746093zm0 0" fill="#fff5cb"/><path d="m385.777344 126.21875c-39.101563-39.101562-102.496094-39.101562-141.601563 0-39.101562 39.101562-39.101562 102.5 0 141.601562 39.105469 39.101563 102.5 39.101563 141.601563 0 39.101562-39.101562 39.101562-102.5 0-141.601562zm0 0" fill="#00f8fe"/><path d="m385.78125 267.824219c-39.101562 39.101562-102.5 39.101562-141.605469 0l141.605469-141.605469c39.105469 39.101562 39.105469 102.5 0 141.605469zm0 0" fill="#00d9e0"/><path d="m279.921875 146.914062c-.601563-.59375-1.15625-1.25-1.65625-1.964843-4.484375-6.441407-2.449219-15.464844 4.078125-19.828125 20.808594-13.902344 46.046875-11.925782 64.457031 1.535156 7.292969 5.335938 7.804688 16.058594 1.164063 22.1875l-.140625.128906c-5.34375 4.933594-13.496094 5.082032-19.085938.425782-1.90625-1.582032-3.714843-2.964844-5.003906-3.671876-1.8125-.933593-12.148437-6.792968-26.160156 2.769532-5.601563 3.824218-13 3.011718-17.652344-1.582032zm0 0" fill="#ff9a00"/><path d="m373.476562 235.234375c-.601562.355469-1.246093.660156-1.921874.910156-6.105469 2.230469-12.898438-1.304687-15.015626-7.449219-6.738281-19.597656.171876-39.386718 14.835938-51.285156 5.8125-4.714844 14.503906-2.863281 18.011719 3.746094l.074219.140625c2.820312 5.320313 1.21875 11.882813-3.6875 15.375-1.671876 1.191406-3.160157 2.347656-3.996094 3.230469-1.132813 1.253906-8.007813 8.292968-3.308594 21.527344 1.882812 5.296874-.332031 11.050781-4.992188 13.804687zm0 0" fill="#0082d1"/><path d="m300.4375 257.066406c-.078125.816406-.226562 1.636719-.460938 2.453125-2.074218 7.339844-10.101562 11.367188-17.398437 9.152344-23.261719-7.0625-37.324219-27.234375-38.558594-49.355469-.488281-8.761718 7.25-15.753906 15.945313-14.542968l.183594.027343c6.996093.972657 12.132812 7.003907 12.082031 14.070313-.019531 2.40625.058593 4.617187.320312 6.019531.417969 1.9375 2.382813 13.3125 18.195313 17.941406 6.324218 1.851563 10.273437 7.910157 9.691406 14.234375zm0 0" fill="#4b5be5"/><path d="m282.574219 268.671875c-9.789063-2.972656-17.941407-8.265625-24.207031-15.039063l18.9375-18.9375c2.667968 3.105469 6.851562 6.214844 13.441406 8.140626 6.324218 1.851562 10.273437 7.910156 9.695312 14.230468-.078125.816406-.234375 1.632813-.460937 2.457032-2.078125 7.335937-10.101563 11.363281-17.40625 9.148437zm0 0" fill="#1c2ede"/><path d="m328.75 183.25c-5.953125-5.953125-15.601562-5.953125-21.554688 0-5.949218 5.949219-5.949218 15.597656 0 21.550781 5.953126 5.953125 15.601563 5.953125 21.554688 0 5.949219-5.953125 5.949219-15.601562 0-21.550781zm0 0" fill="#ffd400"/><path d="m328.753906 204.796875c-5.953125 5.957031-15.597656 5.957031-21.554687 0l21.554687-21.550781c5.953125 5.953125 5.945313 15.605468 0 21.550781zm0 0" fill="#ff9a00"/><path d="m261.8125 162.546875c-4.230469-4.230469-11.085938-4.230469-15.316406 0-4.230469 4.226563-4.230469 11.085937 0 15.316406 4.230468 4.230469 11.085937 4.230469 15.316406 0s4.230469-11.089843 0-15.316406zm0 0" fill="#009ae5"/><path d="m347.773438 254.070312c-5.527344-5.523437-14.484376-5.523437-20.007813 0-5.523437 5.523438-5.523437 14.480469 0 20.007813 5.523437 5.523437 14.480469 5.523437 20.007813 0 5.523437-5.527344 5.523437-14.484375 0-20.007813zm0 0" fill="#c06200"/></svg>