<svg height="511.99998pt" viewBox="1 1 511.99998 511.99998" width="511.99998pt" xmlns="http://www.w3.org/2000/svg"><path d="m512 256c0 141.386719-114.613281 256-256 256s-256-114.613281-256-256 114.613281-256 256-256 256 114.613281 256 256zm0 0" fill="#00a5a9"/><path d="m170.921875 81.5c-40.5625 0-73.566406 33.003906-73.566406 73.570312 0 17.070313 13.839843 30.90625 30.90625 30.90625 17.066406 0 30.90625-13.835937 30.90625-30.90625 0-6.484374 5.273437-11.757812 11.753906-11.757812 17.070313 0 30.90625-13.835938 30.90625-30.90625 0-17.066406-13.835937-30.90625-30.90625-30.90625zm0 0" fill="#60f375"/><path d="m170.921875 112.40625c-23.523437 0-42.660156 19.140625-42.621094 42.664062 0 0-.011719 0-.039062 0h-30.90625v.007813c.003906 17.066406 13.839843 30.898437 30.90625 30.898437 17.066406 0 30.90625-13.835937 30.90625-30.90625 0-6.484374 5.273437-11.757812 11.753906-11.757812 17.070313 0 30.90625-13.835938 30.90625-30.90625 0-17.0625-13.828125-30.894531-30.886719-30.90625h-.019531zm0 0" fill="#28d05b"/><path d="m66.445312 287.550781c-17.066406 0-30.90625 13.839844-30.90625 30.90625 0 17.070313 13.839844 30.90625 30.90625 30.90625 6.484376 0 11.757813 5.273438 11.757813 11.757813 0 17.066406 13.839844 30.902344 30.90625 30.902344s30.90625-13.835938 30.90625-30.902344c0-40.566406-33.003906-73.570313-73.570313-73.570313zm0 0" fill="#60f375"/><path d="m109.109375 392.023438c17.066406 0 30.90625-13.835938 30.90625-30.902344 0-40.566406-33.003906-73.570313-73.570313-73.570313v1.070313c0 14.761718 8.214844 28.09375 21.042969 35.394531 12.90625 7.347656 21.632813 21.226563 21.660157 37.101563 0 0-.011719.003906-.039063.003906zm0 0" fill="#28d05b"/><path d="m422.289062 320.886719c-17.066406 0-30.90625 13.839843-30.90625 30.90625 0 6.484375-5.273437 11.757812-11.753906 11.757812-17.070312 0-30.90625 13.839844-30.90625 30.90625 0 17.070313 13.835938 30.90625 30.90625 30.90625 40.5625 0 73.566406-33.003906 73.566406-73.570312 0-17.066407-13.835937-30.90625-30.90625-30.90625zm0 0" fill="#60f375"/><path d="m422.289062 351.792969c0 23.527343-19.136718 42.664062-42.660156 42.664062h-30.90625v.003907c0 17.066406 13.839844 30.902343 30.90625 30.902343 40.5625 0 73.566406-33.003906 73.566406-73.570312 0-17.066407-13.832031-30.898438-30.894531-30.90625h-.011719zm0 0" fill="#28d05b"/><path d="m238.414062 430.523438c-4.585937-4.585938-4.585937-12.046876-.003906-16.628907 12.070313-12.070312 12.070313-31.636719 0-43.707031-12.066406-12.070312-31.636718-12.070312-43.707031 0-28.683594 28.683594-28.683594 75.355469.003906 104.042969 12.070313 12.066406 31.636719 12.066406 43.707031 0 12.066407-12.070313 12.066407-31.640625 0-43.707031zm0 0" fill="#87f8f4"/><path d="m194.707031 474.230469c12.070313 12.070312 31.636719 12.070312 43.707031 0 12.066407-12.070313 12.066407-31.640625 0-43.707031-4.585937-4.585938-4.585937-12.042969-.003906-16.628907 12.070313-12.070312 12.070313-31.636719 0-43.707031l-21.855468 21.855469c-16.632813 16.636719-16.628907 43.703125.035156 60.359375 0 0-.011719-.007813-.03125-.027344zm0 0" fill="#00e7ec"/><path d="m296.890625 190.617188c-12.070313-12.070313-31.636719-12.070313-43.707031 0l-53.253906 53.253906c-12.070313 12.070312-12.070313 31.636718 0 43.707031 6.035156 6.035156 13.945312 9.050781 21.855468 9.050781 7.90625 0 15.816406-3.015625 21.851563-9.050781l53.253906-53.253906c12.070313-12.070313 12.070313-31.636719 0-43.707031zm0 0" fill="#87f8f4"/><path d="m253.183594 190.617188c12.070312 12.070312 12.070312 31.636718 0 43.707031l-53.253906 53.253906c6.035156 6.035156 13.945312 9.054687 21.855468 9.054687 7.90625 0 15.816406-3.019531 21.851563-9.054687l53.253906-53.253906c12.070313-12.070313 12.070313-31.636719 0-43.707031-12.066406-12.070313-31.636719-12.070313-43.707031 0zm0 0" fill="#00e7ec"/><path d="m389.613281 130.542969-53.253906-53.25c-12.070313-12.070313-31.636719-12.070313-43.707031 0-12.070313 12.070312-12.070313 31.636719 0 43.707031l53.253906 53.253906c6.035156 6.03125 13.941406 9.050782 21.851562 9.050782 7.910157 0 15.820313-3.019532 21.855469-9.054688 12.070313-12.070312 12.070313-31.636719 0-43.707031zm0 0" fill="#ffcf5d"/><path d="m389.613281 130.542969-53.253906-53.25c-12.070313-12.070313-31.640625-12.070313-43.707031 0l21.851562 21.851562 31.386719 31.355469c12.089844 12.074219 12.097656 31.667969.015625 43.75l.03125.03125c6.027344 6.015625 13.925781 9.023438 21.824219 9.023438 7.910156 0 15.816406-3.019532 21.851562-9.050782 12.070313-12.070312 12.070313-31.640625 0-43.710937zm0 0" fill="#ffb545"/><g fill="#ffcf5d"><path d="m250.847656 44.171875c0 8.535156-6.917968 15.453125-15.453125 15.453125-8.535156 0-15.453125-6.917969-15.453125-15.453125s6.917969-15.453125 15.453125-15.453125c8.535157 0 15.453125 6.917969 15.453125 15.453125zm0 0"/><path d="m480.644531 198.757812c0 8.53125-6.917969 15.449219-15.453125 15.449219s-15.453125-6.917969-15.453125-15.449219c0-8.535156 6.917969-15.453124 15.453125-15.453124s15.453125 6.917968 15.453125 15.453124zm0 0"/><path d="m353.871094 456.269531c0 8.535157-6.917969 15.453125-15.453125 15.453125-8.53125 0-15.449219-6.917968-15.449219-15.453125 0-8.535156 6.917969-15.453125 15.449219-15.453125 8.535156 0 15.453125 6.917969 15.453125 15.453125zm0 0"/><path d="m346.316406 265.671875c0 8.535156-6.917968 15.453125-15.449218 15.453125-8.535157 0-15.453126-6.917969-15.453126-15.453125 0-8.53125 6.917969-15.453125 15.453126-15.453125 8.53125 0 15.449218 6.921875 15.449218 15.453125zm0 0"/><path d="m147.824219 435.664062c0 8.535157-6.917969 15.453126-15.453125 15.453126s-15.453125-6.917969-15.453125-15.453126c0-8.53125 6.917969-15.449218 15.453125-15.449218s15.453125 6.917968 15.453125 15.449218zm0 0"/></g><path d="m65.402344 209.011719c0 8.535156-6.917969 15.453125-15.453125 15.453125-8.53125 0-15.453125-6.917969-15.453125-15.453125 0-8.535157 6.921875-15.453125 15.453125-15.453125 8.535156 0 15.453125 6.917968 15.453125 15.453125zm0 0" fill="#87f8f4"/><path d="m306.304688 378.921875c-8.53125 0-15.453126 6.917969-15.453126 15.449219 0 3.242187-2.636718 5.882812-5.875 5.882812-8.535156 0-15.453124 6.917969-15.453124 15.449219 0 8.535156 6.917968 15.453125 15.453124 15.453125 20.28125 0 36.78125-16.5 36.78125-36.785156 0-8.53125-6.917968-15.449219-15.453124-15.449219zm0 0" fill="#ffcf5d"/><path d="m149.71875 252.613281c-2.292969-2.292969-2.292969-6.023437 0-8.316406 6.035156-6.035156 6.035156-15.816406 0-21.851563-6.035156-6.035156-15.820312-6.035156-21.855469 0-14.339843 14.34375-14.339843 37.675782.003907 52.019532 6.035156 6.035156 15.816406 6.035156 21.851562 0s6.035156-15.816406 0-21.851563zm0 0" fill="#ffcf5d"/><path d="m422.90625 203.980469c-6.035156-6.035157-15.820312-6.035157-21.855469 0l-26.625 26.628906c-6.035156 6.035156-6.035156 15.816406 0 21.851563 3.015625 3.019531 6.972657 4.527343 10.925781 4.527343 3.953126 0 7.910157-1.507812 10.925782-4.527343l26.625-26.625c6.039062-6.035157 6.039062-15.820313.003906-21.855469zm0 0" fill="#87f8f4"/><path d="m320.210938 329.003906-26.628907-26.625c-6.03125-6.03125-15.816406-6.035156-21.851562 0-6.035157 6.035156-6.035157 15.820313 0 21.855469l26.625 26.625c3.019531 3.019531 6.972656 4.527344 10.925781 4.527344 3.957031 0 7.910156-1.507813 10.929688-4.527344 6.035156-6.035156 6.035156-15.820313 0-21.855469zm0 0" fill="#ffcf5d"/><path d="m475.855469 250.21875c-20.28125 0-36.78125 16.503906-36.78125 36.785156 0 8.535156 6.917969 15.453125 15.449219 15.453125 8.535156 0 15.453124-6.917969 15.453124-15.453125 0-3.242187 2.636719-5.878906 5.878907-5.878906 8.535156 0 15.453125-6.917969 15.453125-15.453125 0-8.53125-6.917969-15.453125-15.453125-15.453125zm0 0" fill="#ffcf5d"/><path d="m58.578125 152.160156c0 4.265625-3.460937 7.726563-7.726563 7.726563-4.265624 0-7.726562-3.460938-7.726562-7.726563 0-4.269531 3.460938-7.726562 7.726562-7.726562 4.265626 0 7.726563 3.457031 7.726563 7.726562zm0 0" fill="#ffcf5d"/><path d="m171.90625 49.132812c0 4.269532-3.460938 7.726563-7.726562 7.726563-4.269532 0-7.726563-3.457031-7.726563-7.726563 0-4.265624 3.457031-7.726562 7.726563-7.726562 4.265624 0 7.726562 3.460938 7.726562 7.726562zm0 0" fill="#ffcf5d"/><path d="m439.074219 125.773438c0 4.265624-3.460938 7.726562-7.726563 7.726562-4.269531 0-7.726562-3.460938-7.726562-7.726562 0-4.269532 3.457031-7.726563 7.726562-7.726563 4.265625 0 7.726563 3.457031 7.726563 7.726563zm0 0" fill="#87f8f4"/><path d="m371.09375 62.011719c0 4.269531-3.457031 7.726562-7.726562 7.726562-4.265626 0-7.726563-3.457031-7.726563-7.726562 0-4.265625 3.460937-7.726563 7.726563-7.726563 4.269531 0 7.726562 3.460938 7.726562 7.726563zm0 0" fill="#60f375"/><path d="m238.871094 154.734375c0 4.269531-3.460938 7.726563-7.726563 7.726563-4.269531 0-7.726562-3.457032-7.726562-7.726563 0-4.265625 3.457031-7.726563 7.726562-7.726563 4.265625 0 7.726563 3.460938 7.726563 7.726563zm0 0" fill="#ffcf5d"/><path d="m290.382812 474.109375c0 4.269531-3.460937 7.726563-7.726562 7.726563s-7.726562-3.457032-7.726562-7.726563c0-4.265625 3.460937-7.726563 7.726562-7.726563s7.726562 3.460938 7.726562 7.726563zm0 0" fill="#ffcf5d"/><path d="m179.632812 352.808594c0 4.269531-3.460937 7.726562-7.726562 7.726562-4.269531 0-7.726562-3.457031-7.726562-7.726562 0-4.265625 3.457031-7.726563 7.726562-7.726563 4.265625 0 7.726562 3.460938 7.726562 7.726563zm0 0" fill="#60f375"/></svg>