<svg height="512pt" viewBox="0 0 512 512" width="512pt" xmlns="http://www.w3.org/2000/svg"><g fill="#ffb655"><path d="m157.550781 100.230469c-5.105469 0-10.066406-2.648438-12.800781-7.386719l-22.15625-38.371094c-4.078125-7.0625-1.65625-16.097656 5.40625-20.175781s16.097656-1.65625 20.175781 5.40625l22.152344 38.371094c4.078125 7.066406 1.660156 16.097656-5.40625 20.175781-2.324219 1.34375-4.863281 1.980469-7.371094 1.980469zm0 0"/><path d="m376.628906 479.683594c-5.105468 0-10.070312-2.648438-12.804687-7.386719l-22.152344-38.371094c-4.078125-7.066406-1.660156-16.097656 5.40625-20.175781 7.0625-4.082031 16.09375-1.65625 20.171875 5.40625l22.15625 38.371094c4.078125 7.0625 1.65625 16.097656-5.40625 20.175781-2.324219 1.34375-4.863281 1.980469-7.371094 1.980469zm0 0"/><path d="m85.445312 172.3125c-2.503906 0-5.042968-.640625-7.371093-1.984375l-38.371094-22.152344c-7.0625-4.078125-9.484375-13.109375-5.40625-20.175781 4.078125-7.0625 13.113281-9.488281 20.175781-5.40625l38.371094 22.15625c7.0625 4.078125 9.484375 13.109375 5.40625 20.171875-2.734375 4.738281-7.699219 7.390625-12.804688 7.390625zm0 0"/><path d="m464.898438 391.386719c-2.507813 0-5.046876-.636719-7.371094-1.980469l-38.371094-22.15625c-7.0625-4.078125-9.484375-13.109375-5.40625-20.171875 4.078125-7.066406 13.109375-9.488281 20.175781-5.40625l38.371094 22.152344c7.0625 4.078125 9.484375 13.109375 5.40625 20.175781-2.734375 4.738281-7.699219 7.386719-12.804687 7.386719zm0 0"/><path d="m47.101562 391.386719c-5.105468 0-10.066406-2.648438-12.804687-7.386719-4.078125-7.066406-1.65625-16.097656 5.40625-20.175781l38.371094-22.152344c7.066406-4.082031 16.097656-1.660156 20.175781 5.40625 4.078125 7.0625 1.65625 16.097656-5.40625 20.171875l-38.371094 22.15625c-2.324218 1.34375-4.867187 1.980469-7.371094 1.980469zm0 0"/><path d="m426.554688 172.3125c-5.105469 0-10.070313-2.652344-12.804688-7.390625-4.078125-7.0625-1.65625-16.097656 5.40625-20.171875l38.371094-22.15625c7.0625-4.082031 16.097656-1.660156 20.175781 5.40625s1.65625 16.097656-5.40625 20.175781l-38.371094 22.152344c-2.328125 1.34375-4.867187 1.984375-7.371093 1.984375zm0 0"/><path d="m135.371094 479.683594c-2.507813 0-5.046875-.636719-7.371094-1.980469-7.0625-4.078125-9.484375-13.113281-5.40625-20.175781l22.15625-38.371094c4.078125-7.066406 13.109375-9.488281 20.171875-5.40625 7.066406 4.078125 9.484375 13.109375 5.40625 20.175781l-22.152344 38.371094c-2.734375 4.738281-7.699219 7.386719-12.804687 7.386719zm0 0"/><path d="m354.449219 100.230469c-2.507813 0-5.046875-.636719-7.371094-1.980469-7.066406-4.078125-9.484375-13.109375-5.40625-20.175781l22.152344-38.371094c4.078125-7.066406 13.109375-9.484375 20.175781-5.40625 7.0625 4.078125 9.484375 13.113281 5.40625 20.175781l-22.15625 38.371094c-2.734375 4.738281-7.699219 7.386719-12.800781 7.386719zm0 0"/><path d="m352.773438 259.234375c-11.835938 0-22.960938-4.609375-31.332032-12.980469l-27.851562-27.847656c-17.273438-17.273438-17.273438-45.382812 0-62.660156 17.277344-17.277344 45.386718-17.273438 62.664062 0l27.847656 27.847656c8.367188 8.371094 12.976563 19.496094 12.976563 31.332031 0 11.835938-4.609375 22.960938-12.976563 31.328125-8.367187 8.371094-19.496093 12.980469-31.328124 12.980469zm-27.851563-86.917969c-3.78125 0-7.5625 1.4375-10.441406 4.316406-5.757813 5.761719-5.757813 15.128907 0 20.886719l27.847656 27.851563c2.789063 2.789062 6.5 4.324218 10.441406 4.324218 3.945313 0 7.65625-1.535156 10.445313-4.324218 2.789062-2.789063 4.328125-6.5 4.328125-10.445313 0-3.945312-1.539063-7.652343-4.328125-10.441406l-27.847656-27.847656c-2.878907-2.882813-6.664063-4.320313-10.445313-4.320313zm0 0"/><path d="m269.078125 397.078125c-11.832031 0-22.960937-4.609375-31.328125-12.976563l-27.851562-27.847656c-17.273438-17.277344-17.273438-45.386718 0-62.660156 17.277343-17.277344 45.386718-17.273438 62.660156 0l27.851562 27.847656c8.367188 8.367188 12.976563 19.496094 12.976563 31.328125 0 11.835938-4.609375 22.964844-12.976563 31.332031-8.371094 8.371094-19.496094 12.976563-31.332031 12.976563zm-27.847656-86.917969c-3.78125 0-7.566407 1.441406-10.445313 4.320313-5.757812 5.757812-5.757812 15.128906 0 20.886719l27.851563 27.847656c2.789062 2.789062 6.496093 4.328125 10.441406 4.328125s7.652344-1.539063 10.445313-4.328125c2.789062-2.789063 4.324218-6.496094 4.324218-10.441406 0-3.945313-1.535156-7.652344-4.324218-10.441407l-27.851563-27.851562c-2.875-2.878907-6.660156-4.320313-10.441406-4.320313zm0 0"/><path d="m172.308594 259.210938c-11.347656 0-22.691406-4.316407-31.332032-12.953126-8.367187-8.371093-12.976562-19.496093-12.976562-31.332031 0-11.835937 4.609375-22.960937 12.976562-31.328125l27.851563-27.847656c8.367187-8.371094 19.492187-12.980469 31.328125-12.980469s22.960938 4.609375 31.332031 12.980469c17.273438 17.273438 17.273438 45.382812 0 62.660156l-27.851562 27.847656c-8.636719 8.636719-19.984375 12.953126-31.328125 12.953126zm27.847656-86.902344c-3.945312 0-7.652344 1.535156-10.441406 4.324218l-27.851563 27.851563c-2.789062 2.789063-4.324219 6.496094-4.324219 10.441406 0 3.945313 1.535157 7.652344 4.324219 10.441407 2.789063 2.789062 6.5 4.328124 10.445313 4.328124 3.945312 0 7.652344-1.539062 10.441406-4.328124l27.851562-27.847657c5.757813-5.757812 5.757813-15.128906 0-20.886719-2.789062-2.789062-6.5-4.324218-10.445312-4.324218zm0 0"/></g><path d="m148.183594 320.492188c-3.777344 0-7.558594-1.441407-10.441406-4.328126l-.984376-.984374c-5.769531-5.765626-5.769531-15.117188 0-20.886719 5.765626-5.765625 15.117188-5.765625 20.886719 0l.984375.984375c5.765625 5.769531 5.765625 15.121094 0 20.886718-2.882812 2.886719-6.664062 4.328126-10.445312 4.328126zm0 0" fill="#d32f2f"/><path d="m363.816406 320.492188c-3.78125 0-7.5625-1.441407-10.445312-4.328126-5.765625-5.765624-5.765625-15.117187 0-20.886718l.984375-.984375c5.769531-5.765625 15.121093-5.765625 20.886719 0 5.769531 5.769531 5.769531 15.121093 0 20.886719l-.984376.984374c-2.882812 2.886719-6.664062 4.328126-10.441406 4.328126zm0 0" fill="#d32f2f"/><path d="m256 512c-24.429688 0-44.308594-19.875-44.308594-44.308594v-4.644531c-39.9375-8.46875-76.15625-28.140625-105.375-57.363281-29.222656-29.21875-48.898437-65.4375-57.363281-105.375h-4.644531c-24.433594 0-44.308594-19.878906-44.308594-44.308594s19.875-44.308594 44.308594-44.308594h4.644531c8.464844-39.9375 28.140625-76.15625 57.363281-105.375 29.21875-29.222656 65.4375-48.898437 105.375-57.363281v-4.644531c0-24.433594 19.878906-44.308594 44.308594-44.308594s44.308594 19.875 44.308594 44.308594v4.644531c39.9375 8.46875 76.15625 28.140625 105.375 57.363281 29.222656 29.21875 48.898437 65.4375 57.363281 105.375h4.644531c24.433594 0 44.308594 19.878906 44.308594 44.308594s-19.875 44.308594-44.308594 44.308594h-4.644531c-8.46875 39.9375-28.140625 76.15625-57.363281 105.375-29.21875 29.222656-65.4375 48.894531-105.375 57.363281v4.644531c0 24.433594-19.878906 44.308594-44.308594 44.308594zm-211.691406-270.769531c-8.144532 0-14.769532 6.625-14.769532 14.769531s6.625 14.769531 14.769532 14.769531h16.972656c7.308594 0 13.519531 5.34375 14.605469 12.570313 11.761719 78.1875 74.585937 141.011718 152.773437 152.773437 7.226563 1.085938 12.570313 7.296875 12.570313 14.605469v16.972656c0 8.144532 6.625 14.769532 14.769531 14.769532s14.769531-6.625 14.769531-14.769532v-16.972656c0-7.308594 5.34375-13.519531 12.570313-14.605469 78.1875-11.761719 141.011718-74.585937 152.773437-152.773437 1.085938-7.226563 7.296875-12.570313 14.605469-12.570313h16.972656c8.144532 0 14.769532-6.625 14.769532-14.769531s-6.625-14.769531-14.769532-14.769531h-16.972656c-7.308594 0-13.519531-5.34375-14.605469-12.570313-11.761719-78.1875-74.585937-141.011718-152.773437-152.773437-7.226563-1.085938-12.570313-7.296875-12.570313-14.605469v-16.972656c0-8.144532-6.625-14.769532-14.769531-14.769532s-14.769531 6.625-14.769531 14.769532v16.972656c0 7.308594-5.34375 13.519531-12.570313 14.605469-78.1875 11.761719-141.011718 74.585937-152.773437 152.773437-1.085938 7.226563-7.296875 12.570313-14.605469 12.570313zm0 0" fill="#ef5350"/></svg>