<svg height="511pt" viewBox="-31 0 511 511.9994" width="511pt" xmlns="http://www.w3.org/2000/svg"><path d="m449.175781 154.78125c0 42.265625-35.910156 73.792969-78.125 73.792969h-288.890625c-45.054687 0-81.660156-33.492188-81.660156-77.765625 0-55.371094 55.871094-92.171875 105.960938-72.625 2.816406 1.097656 6.015624-.296875 7.046874-3.132813 17.054688-46.632812 62.691407-76.984375 111.332032-74.9531248 51.804687 1.7343748 94.867187 37.9414058 106.976562 86.4179688.859375 3.445313 4.738282 5.21875 7.839844 3.5 47.984375-26.6875 109.519531 7.636719 109.519531 64.765625zm0 0" fill="#ff5e93"/><path d="m449.175781 154.78125c0 42.265625-35.910156 73.792969-78.125 73.792969h-146.214843v-228.480469c51.808593 1.738281 94.871093 37.945312 106.980468 86.417969.855469 3.445312 4.738282 5.21875 7.839844 3.5 47.984375-26.683594 109.519531 7.640625 109.519531 64.769531zm0 0" fill="#ff3c7d"/><path d="m358.097656 299.410156c-1.878906-2.773437-4.644531-4.925781-7.984375-6.039062-115.867187-38.433594-93.328125-30.960938-120.359375-39.921875-3.179687-1.050781-6.621094-1.050781-9.804687 0-24.511719 8.128906-93.703125 31.074219-120.398438 39.921875-3.328125 1.113281-6.105469 3.265625-7.976562 6.039062-1.714844 2.527344-2.703125 5.5625-2.703125 8.765625v148.304688c0 6.71875 4.304687 12.683593 10.679687 14.796875l120.378907 39.921875c1.589843.53125 3.242187.800781 4.90625.800781 1.664062 0 3.316406-.269531 4.910156-.800781l120.367187-39.921875c6.375-2.113282 10.679688-8.078125 10.679688-14.796875l.007812-148.304688c0-3.203125-.984375-6.238281-2.703125-8.765625zm0 0" fill="#005fe1"/><path d="m297.652344 171.660156h-35.292969c-3.359375 0-6.082031 2.722656-6.082031 6.082032v257.144531l-31.503906-.019531-31.511719-.03125v-257.09375c0-3.359376-2.710938-6.082032-6.070313-6.082032h-35.304687c-4.941407 0-7.820313-5.59375-4.941407-9.605468l72.878907-101.9375c1.207031-1.695313 3.078125-2.546876 4.949219-2.546876 1.863281 0 3.722656.851563 4.941406 2.546876l72.886718 101.9375c2.882813 4.011718 0 9.605468-4.949218 9.605468zm0 0" fill="#ffeb99"/><path d="m297.652344 171.660156h-35.292969c-3.359375 0-6.082031 2.722656-6.082031 6.082032v257.144531l-31.503906-.019531v-377.296876c1.863281 0 3.722656.851563 4.941406 2.546876l72.886718 101.9375c2.882813 4.011718 0 9.605468-4.949218 9.605468zm0 0" fill="#ffda44"/><path d="m360.800781 308.175781-.007812 148.304688c0 6.71875-4.304688 12.683593-10.679688 14.796875l-120.367187 39.921875c-1.59375.53125-3.246094.800781-4.910156.800781-1.664063 0-3.316407-.269531-4.90625-.800781l-120.378907-39.921875c-6.375-2.113282-10.679687-8.078125-10.679687-14.796875v-148.304688c0-3.203125.988281-6.238281 2.703125-8.765625l128.367187 42.554688c1.589844.53125 3.242188.800781 4.894532.800781 1.664062 0 3.328124-.269531 4.917968-.800781l128.34375-42.554688c1.71875 2.527344 2.703125 5.5625 2.703125 8.765625zm0 0" fill="#6aa9ff"/><path d="m360.800781 308.175781-.007812 148.304688c0 6.71875-4.304688 12.683593-10.679688 14.796875l-120.367187 39.921875c-1.59375.53125-3.246094.800781-4.910156.800781v-169.234375c1.664062 0 3.328124-.269531 4.917968-.800781l128.34375-42.554688c1.71875 2.527344 2.703125 5.5625 2.703125 8.765625zm0 0" fill="#2682ff"/></svg>