<svg height="512pt" viewBox="0 -33 512 512" width="512pt" xmlns="http://www.w3.org/2000/svg"><path d="m256 0-20.015625 147.585938 276.015625-20.015626v-127.570312zm0 0" fill="#b4d2d7"/><path d="m256 0h-256v127.570312l256 20.015626zm0 0" fill="#e1ebf0"/><path d="m47.839844 48.785156h31.890625v30h-31.890625zm0 0" fill="#ff3939"/><path d="m111.625 48.785156h31.894531v30h-31.894531zm0 0" fill="#ff9f22"/><path d="m175.410156 48.785156h31.894532v30h-31.894532zm0 0" fill="#15ccc2"/><path d="m256 446.496094h256v-318.925782h-256l-20.015625 159.464844zm0 0" fill="#03232e"/><path d="m0 127.570312h256v318.925782h-256zm0 0" fill="#07485e"/><path d="m370.800781 265.886719c-.933593-41.320313-34.695312-74.53125-76.238281-74.53125-14.074219 0-27.246094 3.832031-38.5625 10.484375l-20.015625 97.742187 20.015625 83.132813h112.984375c32.273437 0 58.4375-26.164063 58.4375-58.4375 0-31.667969-25.1875-57.429688-56.621094-58.390625zm0 0" fill="#efe2dd"/><path d="m238.71875 215.699219c-9.867188-6.339844-21.597656-10.027344-34.195312-10.027344-33.9375 0-61.644532 26.679687-63.289063 60.210937-31.449219.945313-56.65625 26.71875-56.65625 58.394532 0 32.273437 26.164063 58.4375 58.4375 58.4375h112.984375v-180.875c-6.417969 3.769531-12.242188 8.441406-17.28125 13.859375zm0 0" fill="#fff5f5"/></svg>